<?xml version="1.0" encoding="utf-8"?>
<!-- Generator: Adobe Illustrator 28.0.0, SVG Export Plug-In . SVG Version: 6.00 Build 0)  -->
<svg version="1.1" id="Layer_1" xmlns="http://www.w3.org/2000/svg" xmlns:xlink="http://www.w3.org/1999/xlink" x="0px" y="0px"
	 viewBox="0 0 2500 679" style="enable-background:new 0 0 2500 679;" xml:space="preserve">
<style type="text/css">
	.st0{fill:#FFFFFF;}
</style>
<path class="st0" d="M751.9,79.4c-8.7,58.3-26,199.7,11.2,339.8c7.4,18.6,26,13.6,33.5,5c2.5-3.7,27.3-27.3,27.3-27.3
	c8.7-12.4,17.4-8.7,23.6,0s23.6,36,49.6,37.2c26,1.2,67-29.8,83.1-42.2c11.2,21.1,24.8,40.9,47.1,39.7c22.3-1.2,43.4-17.4,62-37.2
	c13.6,16.1,28.5,33.5,45.9,32.2c17.4-1.2,49.6-19.8,80.6-48.4c12.4-13.6,26-7.4,34.7,6.2c8.7,13.6,21.1,36,37.2,36
	c16.1,0,39.7-22.3,47.1-28.5c7.4-6.2,14.9-11.2,23.6-1.2L1377,408c11.2,11.2,34.7,8.7,52.1-7.4c17.4-16.1,21.1-21.1,28.5-21.1
	c7.4,0,11.2,9.9,18.6,17.4c7.4,7.4,64.5,57,140.1-19.8c1.2,38.5-7.4,254.2-7.4,285.2c0,14.9,17.4,19.8,42.2,14.9
	c24.8-5,37.2-12.4,36-48.4c-1.2-36-6.2-213.3-6.2-213.3c3.7-28.5,28.5-75.7,54.6-76.9c26-1.2,13.6,31,1.2,31c-12.4,0-26,6.2-26,17.4
	c0,11.2,3.7,43.4,76.9,43.4c73.2,0,81.8-23.6,101.7-32.2c12.4,23.6,49.6,60.8,152.5-5c21.1,24.8,60.8,55.8,104.2,24.8
	c13.6-11.2,27.3-37.2,22.3-59.5c-3.7-8.7-1.2-12.4,5-12.4h40.9c8.7,0,23.6,6.2,28.5,31c5,24.8,22.3,45.9,36,44.6
	c13.6-1.2,39.7-22.3,54.6-37.2c12.4,17.4,65.7,98,163.7-37.2c8.7-12.4-5-18.6-12.4-9.9c-7.4,8.7-29.8,22.3-48.4,23.6
	c-18.6,1.2-40.9-17.4-58.3-40.9c-17.4-23.6-37.2-14.9-49.6,3.7c-8.7,9.9-13.6,19.8-23.6,31c-6.2-11.2-13.6-34.7-26-43.4
	c-12.4-8.7-22.3-9.9-52.1-2.5c-29.8,7.4-63.2,11.2-96.7,12.4c-18.6-1.2-13.6,7.4-12.4,14.9c1.2,7.4,14.9,38.4-9.9,39.7
	c-24.8,1.2-22.3-36-5-55.8c8.7-8.7-3.7-27.3-17.4-19.8c-13.6,7.4-22.3,11.2-33.5,28.5c-11.2,17.4-34.7,43.4-73.2,44.6
	c-38.4,1.2-27.3-43.4-26-63.2c0-11.2-7.4-21.1-27.3-16.1c-19.8,5-45.9,2.5-43.4,57c-13.6,19.8-44.6,32.2-69.5,28.5
	c-7.4-1.2-9.9-5-7.4-13.6c2.5-8.7,8.7-57-28.5-69.5c-37.2-12.4-65.7,5-84.3,21.1c-9.9,5-12.4,0-12.4-8.7l1.2-45.9
	c0-21.1-42.2-26-48.4-1.2c-6.2,24.8-13.6,73.2-50.8,90.5c-37.2,17.4-49.6-5-69.5-29.8c-19.8-24.8-39.7-23.6-62-1.2l-22.3,21.1
	c-8.7,7.4-13.6,5-21.1-6.2c-7.4-11.2-12.4-26-26-27.3c-13.6-1.2-16.1,3.7-26,11.2l-28.5,22.3c-11.2,8.7-13.6,8.7-24.8-6.2
	c0,0-18.6-31-37.2-31c-18.6,0-24.8,11.2-36,19.8c0,0-28.5,19.8-38.4,28.5c-9.9,8.7-38.4,26-65.7-14.9c-9.9-14.9-27.3-26-39.7-5
	c-12.4,21.1-32.2,53.3-47.1,43.4c-14.9-9.9,9.9-38.4,28.5-40.9c18.6-2.5,7.4-26-11.2-27.3s-48.4,11.2-62,27.3
	c-13.6,16.1-36,34.7-58.3,33.5c-22.3-1.2-27.3-18.6-38.4-42.2c-11.2-23.6-31-21.1-45.9-8.7c-14.9,12.4-18.6,16.1-29.8,29.8
	c-11.2,13.6-11.2,6.2-12.4-2.5c-1.2-8.7-8.7-168.7,3.7-271.6C816.4,48.4,763.1,39.7,751.9,79.4L751.9,79.4z"/>
<path class="st0" d="M1925.1,270.5c21.3,0,38.6-17.3,38.6-38.6s-17.3-38.6-38.6-38.6s-38.6,17.3-38.6,38.6
	S1903.8,270.5,1925.1,270.5z M689.9,310c-5,3.7-145.1,50.8-222,55.8V78.1c44.6,1.2,129,19.8,182.3,39.7c12.4,6.2,38.4-1.2,11.2-28.5
	C598.1,38.4,498.9,0,367.5,0S0.4,73.2,0.4,222s188.5,223.2,368.3,223.2c126.5,0,244.3-45.9,329.9-127.7
	C712.2,303.8,694.9,306.3,689.9,310z M264.5,365.6c-107-22-182.9-77.5-182.9-142.4c0-64.9,75.9-120.3,182.9-142.4L264.5,365.6
	L264.5,365.6z M2441.6,272.8c-10,0-18.1,7.9-18.1,17.5c0,9.8,8.1,17.7,18.1,17.7c10,0,18-7.9,18-17.7
	C2459.6,280.7,2451.5,272.8,2441.6,272.8z M2441.6,304.5c-8.2,0-14.7-6.2-14.7-14.2c0-7.8,6.5-14,14.7-14c8.1,0,14.6,6.3,14.6,14
	C2456.2,298.3,2449.6,304.5,2441.6,304.5z"/>
<path d="M2450.8,285.7c0-1.6-0.8-3.4-2.2-4.2c-1.5-0.8-3.2-0.9-4.9-0.9h-8.8v19.7h3v-9.1h3.5l5.8,9.1h3.4l-6.1-9.1
	C2448.1,291,2450.8,289.6,2450.8,285.7L2450.8,285.7z M2441.1,288.7h-3.3v-5.9h5.2c2.5,0,4.8,0.3,4.8,2.9
	C2447.9,289.2,2444,288.7,2441.1,288.7L2441.1,288.7z"/>
</svg>
