<?xml version="1.0" encoding="utf-8"?>
<!-- Generator: Adobe Illustrator 28.0.0, SVG Export Plug-In . SVG Version: 6.00 Build 0)  -->
<svg version="1.1" id="Guess_Main_logo" xmlns="http://www.w3.org/2000/svg" xmlns:xlink="http://www.w3.org/1999/xlink" x="0px"
	 y="0px" viewBox="0 0 611.5 108.2" style="enable-background:new 0 0 611.5 108.2;" xml:space="preserve">
<style type="text/css">
	.st0{fill:#FFFFFF;}
</style>
<path class="st0" d="M64.3,54.7l1.6,0.2c6.7,0.4,8.9,1.6,9.6,2.2c0.6,0.5,1.8,2.3,1.8,9.4v24c0.1,0.9-0.2,1.8-0.7,2.5
	c-0.4,0.4-1.4,1.1-6,2.5c-2.2,0.8-4.4,1.3-6.7,1.5c-2,0.3-4.1,0.5-6.2,0.5C48,97.7,38.6,93.6,32,86.4C25,79,21.5,68.4,21.5,55.2
	c0-16.2,3.5-28,10.5-35c7-6.8,15.2-10.4,24.3-10.4s16.2,2.9,21.8,8.9c3.1,3.5,6.2,8.7,9.3,15.8l0.6,1.1h6.6L93.2,0.4h-6.4l-0.5,1.1
	c-0.4,1.1-1,2.1-1.8,2.9c-0.4,0.4-1.1,0.7-3.4,0.7c-0.2,0-1.8-0.2-9.3-2.4C66,1.1,60,0.2,54,0.2C37.5,0.2,23.8,6,13.8,17.5
	C4.7,27.7-0.2,41,0,54.7C0,71,5.8,84.4,17.5,94.2c10.4,8.9,23.2,13.3,38.5,13.3c8.7-0.1,17.4-1.6,25.6-4.5c11.8-4,14.2-6.4,14.2-8.7
	V64.7c0-4.2,0.9-7.1,2.4-8.3c0.5-0.4,2-1.1,6.3-1.5l1.6-0.2v-6.2H64.3V54.7z M213.7,8.4l1.6,0.2c4.9,0.5,8.4,1.6,10,3.4
	c0.9,0.9,2.4,4.2,2.4,14.2v39.2c0,9.3-1.1,16.2-3.3,20.5c-4,7.6-11.4,11.4-23.2,11.4c-10.5,0-17.6-3.6-21.2-11.1
	c-2-4.2-3.1-10.2-3.1-17.6V20.2c0-6.5,1.3-8.5,2-9.3s3.1-2,10.2-2.4l1.6-0.2V2h-46.1v6.4l1.6,0.2c6.9,0.5,9.3,1.8,10,2.5
	s2,2.7,2,9.3v47c0,9.6,1.6,17.4,5.1,23.4c6.2,11.1,18,16.9,34.9,16.9c17.1,0,28.9-5.8,35.2-17.1c3.3-6,5.1-14.5,5.1-25.2V26
	c0-9.8,1.4-12.9,2.4-14c1.1-1.3,3.6-2.9,10.2-3.6l1.6-0.2V2h-38.5v6.4L213.7,8.4z M374.6,77.4c-3.6,8.2-7.8,13.3-12.2,15.3
	c-4.5,2.2-12,3.3-21.8,3.3c-11.4,0-15.2-0.4-16.5-0.7c-0.4-0.2-1.5-0.4-1.5-3.6V56.1h21.4c7.6,0,10.2,1.5,10.9,2.2
	c1.1,1.1,2.5,3.8,3.8,10.7l0.4,1.4h6.9V32.1h-6.9l-0.4,1.5c-1.3,6.7-2.7,9.6-3.8,10.7c-0.7,0.9-3.3,2.4-10.9,2.4h-21.4v-32
	c0-2.4,0.4-2.9,0.4-2.9c0.9-0.3,1.8-0.5,2.7-0.4h20.5c10.5,0,14.5,1.4,16,2.5s3.6,4.2,5.1,11.8l0.4,1.5h7.3L374.1,2h-83.7v6.4
	l1.6,0.2c6.7,0.5,8.9,1.8,9.6,2.5s1.8,2.9,1.8,9.3v67c0,6.9-1.3,8.7-1.8,9.3c-0.7,0.7-3.1,1.8-9.8,2.6l-1.6,0.2v6.2h84.6l7.8-29
	h-7.8L374.6,77.4z M473.8,46.8l-13.3-8.2c-3.9-2.2-7.5-5.1-10.5-8.4c-2.1-2.4-3.2-5.5-3.1-8.7c-0.2-3.4,1.3-6.6,4-8.7
	c2.7-2.2,6.1-3.3,9.6-3.3c4.9,0,10,1.8,15.1,5.4s8.7,10,11.1,19.2l0.4,1.5h7.1L490.5,0h-6.2l-0.4,1.3c-0.2,1.1-0.7,2.1-1.3,3.1
	c-0.7,0.5-1.5,0.8-2.4,0.7c-0.2,0-1.5-0.2-7.8-2.4c-4.2-1.6-8.6-2.5-13-2.7c-8.7,0-16,2.7-21.4,8.2c-5.4,5.4-8.4,12.7-8.2,20.3
	c0,6.2,2.4,11.8,6.9,17.1c2.9,3,6.1,5.6,9.6,7.8l12.9,8c7.3,4.5,12,8,14.2,10.2c3.1,3,4.8,7.3,4.7,11.6c0,4.9-1.5,8.7-4.5,11.4
	c-3.1,2.7-7.1,4.2-11.3,4.2c-8.4,0-15.2-3.3-20.9-9.8c-3.3-3.8-6.2-9.1-8.7-15.6l-0.4-1.1h-6.7l5.1,35.8h6.4l0.2-1.4
	c0.2-1,0.5-2,1.1-2.9c0.2-0.5,0.9-0.7,2-0.7c0.2,0,1.6,0.2,8.2,2.6c4.9,1.7,10.1,2.7,15.3,2.7c9.6,0,17.8-2.9,24-8.3
	c6.2-5.2,9.7-13,9.6-21.1c0.1-6-1.8-11.8-5.4-16.5C488.3,57,482.3,52.1,473.8,46.8z M606.2,61.4c-3.5-4.3-9.6-9.3-18-14.5l-13.3-8.2
	c-3.9-2.3-7.4-5.1-10.5-8.4c-2.1-2.4-3.2-5.5-3.1-8.7c-0.2-3.4,1.3-6.6,4-8.7c2.7-2.2,6.1-3.3,9.6-3.3c4.9,0,10,1.8,15.1,5.4
	s8.7,10,11.1,19.2l0.4,1.5h7.1L604.9,0h-6.2l-0.4,1.3c-0.2,1.1-0.7,2.1-1.3,3.1c-0.7,0.5-1.5,0.8-2.4,0.7c-0.2,0-1.5-0.2-7.8-2.4
	c-4.2-1.6-8.6-2.5-13.1-2.7c-8.7,0-16,2.7-21.4,8.2c-5.4,5.4-8.4,12.7-8.2,20.3c0,6.2,2.4,11.8,6.9,17.1c2.9,3,6.1,5.6,9.6,7.8
	l12.9,8c7.3,4.5,12,8,14.2,10.2c3.1,3,4.8,7.3,4.7,11.6c0,4.9-1.5,8.7-4.7,11.4c-3.1,2.7-7.1,4.2-11.3,4.2c-8.3,0-15.2-3.3-20.9-9.8
	c-3.3-3.8-6.2-9.1-8.7-15.6l-0.4-1.1h-6.7l5.1,35.8h6.4l0.2-1.4c0.2-1,0.5-2,0.9-2.9c0.2-0.5,0.9-0.7,2-0.7c0.2,0,1.6,0.2,8.2,2.6
	c4.9,1.7,10.1,2.7,15.2,2.7c9.6,0,17.8-2.9,24-8.3c6.2-5.2,9.7-13,9.6-21.1C611.6,71.6,609.8,66.1,606.2,61.4L606.2,61.4z"/>
</svg>
