<?xml version="1.0" encoding="utf-8"?>
<!-- Generator: Adobe Illustrator 28.0.0, SVG Export Plug-In . SVG Version: 6.00 Build 0)  -->
<svg version="1.1"
	 id="svg2" xmlns:inkscape="http://www.inkscape.org/namespaces/inkscape" xmlns:sodipodi="http://sodipodi.sourceforge.net/DTD/sodipodi-0.dtd" xmlns:svg="http://www.w3.org/2000/svg" xmlns:rdf="http://www.w3.org/1999/02/22-rdf-syntax-ns#" xmlns:cc="http://creativecommons.org/ns#" xmlns:dc="http://purl.org/dc/elements/1.1/" inkscape:version="0.47 r22583" sodipodi:docname="New document 1"
	 xmlns="http://www.w3.org/2000/svg" xmlns:xlink="http://www.w3.org/1999/xlink" x="0px" y="0px" viewBox="0 0 106.9 93.5"
	 style="enable-background:new 0 0 106.9 93.5;" xml:space="preserve">
<style type="text/css">
	.st0{clip-path:url(#SVGID_00000066512975750433268660000006513745709550720435_);fill:#FFFFFF;}
	.st1{clip-path:url(#SVGID_00000066512975750433268660000006513745709550720435_);}
	
		.st2{clip-path:url(#SVGID_00000066512975750433268660000006513745709550720435_);fill-rule:evenodd;clip-rule:evenodd;fill:#FFFFFF;}
	.st3{clip-path:url(#SVGID_00000122692329641464271240000017359982065153436077_);}
	.st4{clip-path:url(#SVGID_00000052802292542835746110000017156524219513459110_);}
	.st5{clip-path:url(#SVGID_00000155134439409971123380000013314752302044347021_);}
	.st6{clip-path:url(#SVGID_00000021823175152576111760000017404953287578613644_);}
	.st7{clip-path:url(#SVGID_00000104681029677879825620000015237102025075934395_);}
	.st8{fill:none;stroke:#D3D2D2;stroke-width:1.25;stroke-miterlimit:5;}
</style>
<defs>
	
		<inkscape:perspective  id="perspective10" inkscape:persp3d-origin="372.04724 : 350.78739 : 1" inkscape:vp_x="0 : 526.18109 : 1" inkscape:vp_y="0 : 1000 : 0" inkscape:vp_z="744.09448 : 526.18109 : 1" sodipodi:type="inkscape:persp3d">
		</inkscape:perspective>
	
		<inkscape:perspective  id="perspective2824" inkscape:persp3d-origin="0.5 : 0.33333333 : 1" inkscape:vp_x="0 : 0.5 : 1" inkscape:vp_y="0 : 1000 : 0" inkscape:vp_z="1 : 0.5 : 1" sodipodi:type="inkscape:persp3d">
		</inkscape:perspective>
</defs>
<sodipodi:namedview  bordercolor="#666666" borderopacity="1.0" id="base" inkscape:current-layer="g3678" inkscape:cx="69.840826" inkscape:cy="52.522573" inkscape:document-units="px" inkscape:pageopacity="0.0" inkscape:pageshadow="2" inkscape:window-height="1000" inkscape:window-maximized="1" inkscape:window-width="1680" inkscape:window-x="-8" inkscape:window-y="-8" inkscape:zoom="2.4695421" pagecolor="#ffffff" showgrid="false">
	</sodipodi:namedview>
<g>
	<defs>
		<rect id="SVGID_1_" x="0.9" y="0.8" width="110.2" height="91.9"/>
	</defs>
	<clipPath id="SVGID_00000066484530684272789950000004789788356731174332_">
		<use xlink:href="#SVGID_1_"  style="overflow:visible;"/>
	</clipPath>
	<path id="path3688" style="clip-path:url(#SVGID_00000066484530684272789950000004789788356731174332_);fill:#FFFFFF;" d="
		M105.6,61.9c0.5,0.8,0.3,1.8-0.5,2.2c0,0-10.8,6.5-18.6,9.3c-7.8,2.8-15.3,4.3-21.9,4.8c-6.5,0.4-14.1,2-21.9,4.8
		c-7.8,2.8-18.6,9.3-18.6,9.3c-0.8,0.5-1.9,0.2-2.4-0.5c0,0-5.3-7.6-7.3-13.4c-2.1-5.8-3-11.6-2.9-16.6c0.1-5.1-0.8-10.8-2.9-16.6
		c-2.1-5.9-7.3-13.4-7.3-13.4c-0.5-0.8-0.3-1.8,0.5-2.2c0,0,10.8-6.5,18.6-9.3c7.8-2.8,15.3-4.3,21.9-4.8c6.5-0.4,14.1-2,21.9-4.8
		c7.8-2.8,18.6-9.3,18.6-9.3c0.8-0.5,1.9-0.2,2.4,0.5c0,0,5.3,7.6,7.3,13.4c2.1,5.8,3,11.6,2.9,16.6c-0.1,5.1,0.8,10.8,2.9,16.6
		C100.4,54.3,105.6,61.9,105.6,61.9"/>
	<path id="path3692" style="clip-path:url(#SVGID_00000066484530684272789950000004789788356731174332_);" d="M31.3,44.1l-9.2,0
		l0,6.6c0,1.1,0.1,1.8,0.4,2.1c0.3,0.3,0.9,0.5,1.8,0.5l0.2,0l0,0.8l-7.5,0l0-0.8h0.2c0.9,0,1.5-0.2,1.8-0.5c0.3-0.3,0.4-1,0.4-2.1
		l0-13.3c0-1.1-0.1-1.8-0.4-2.1c-0.3-0.3-0.9-0.5-1.8-0.5h-0.2l0-0.8l7.4,0l0,0.8h-0.2c-0.9,0-1.5,0.2-1.8,0.5
		c-0.3,0.3-0.4,1-0.4,2.1l0,5.6l9.2,0l0-5.6c0-1.1-0.1-1.8-0.4-2.1c-0.3-0.3-0.9-0.5-1.8-0.5h-0.2l0-0.8l7.4,0l0,0.8l-0.2,0
		c-0.9,0-1.5,0.2-1.8,0.5c-0.3,0.3-0.4,1-0.4,2.1l0,13.3c0,1.1,0.1,1.8,0.4,2.1c0.3,0.3,0.9,0.5,1.8,0.5h0.2l0,0.8l-7.5,0l0-0.8h0.2
		c0.9,0,1.5-0.2,1.8-0.5c0.3-0.3,0.4-1,0.4-2.1L31.3,44.1z"/>
	<path id="path3696" style="clip-path:url(#SVGID_00000066484530684272789950000004789788356731174332_);" d="M44.4,51.7
		c-0.8,0.9-1.7,1.4-2.7,1.4c-0.6,0-1.1-0.2-1.5-0.7c-0.4-0.5-0.6-1-0.6-1.6c0-1,0.3-1.7,0.9-2.2c0.6-0.5,1.9-1.1,3.9-1.7l0.7-0.2
		l0,2.6C45.2,50.3,45,51.1,44.4,51.7 M46.3,53.8c0.4,0.5,1,0.7,1.7,0.7c0.8,0,1.7-0.2,2.5-0.7l0-0.8c-0.3,0-0.6,0.1-0.9,0.1
		c-0.8,0-1.4-0.3-1.6-0.8c-0.3-0.5-0.4-1.6-0.4-3.1l0-6.2c0-1.3-0.3-2.3-1-2.9c-0.6-0.6-1.7-0.9-3.2-0.9c-1.8,0-3.2,0.5-4.4,1.4
		c-1.2,0.9-1.8,1.9-1.8,3V44l2.8-0.9l0-0.6c0-0.7,0.2-1.2,0.6-1.5c0.4-0.3,1-0.5,1.8-0.5c0.8,0,1.4,0.2,1.9,0.6
		c0.3,0.2,0.6,0.5,0.7,0.9c0.1,0.4,0.2,1,0.2,1.9l0,2l-1.8,0.5c-2.3,0.7-4,1.4-5,2.1c-1,0.8-1.5,1.7-1.5,2.8c0,1,0.3,1.8,1,2.4
		c0.6,0.6,1.4,1,2.4,1c1,0,1.9-0.2,2.7-0.7c0.9-0.5,1.7-1.2,2.4-2.2C45.6,52.6,45.8,53.3,46.3,53.8"/>
	<path id="path3700" style="clip-path:url(#SVGID_00000066484530684272789950000004789788356731174332_);" d="M54.9,43l0,7.7
		c0,1.1,0.1,1.8,0.4,2.1c0.3,0.3,0.9,0.5,1.8,0.5h0.2l0,0.8l-7.3,0l0-0.8l0.2,0c0.9,0,1.5-0.2,1.8-0.5c0.3-0.3,0.4-1,0.4-2.1l0-5.8
		c0-1.2-0.1-2-0.3-2.3c-0.2-0.3-0.6-0.7-1.4-1l-0.7-0.3v-0.2l4.8-1.8l0,3c1-1,2-1.8,2.9-2.3c0.9-0.5,1.8-0.8,2.6-0.8
		c1.2,0,2.1,0.4,2.9,1.2c0.8,0.8,1.2,2.3,1.2,4.5l0,5.8c0,1.1,0.1,1.8,0.4,2.1c0.3,0.3,0.9,0.5,1.8,0.5l0.2,0l0,0.8l-7.2,0l0-0.8
		l0.2,0c0.9,0,1.5-0.2,1.8-0.5c0.3-0.3,0.4-1,0.4-2.1l0-5.8c0-1.3-0.2-2.2-0.6-2.8c-0.4-0.6-1.1-0.9-2.1-0.9c-0.7,0-1.4,0.2-2.2,0.5
		C56.5,42,55.7,42.4,54.9,43"/>
	<path id="path3704" style="clip-path:url(#SVGID_00000066484530684272789950000004789788356731174332_);" d="M70.8,41.5
		c0.7-1,1.7-1.5,2.8-1.5c0.9,0,1.6,0.4,2.2,1.1c0.6,0.7,0.8,1.6,0.8,2.8c0,0.7-0.3,1.2-0.8,1.4c-0.5,0.2-1.7,0.3-3.7,0.3l-2.7,0
		C69.6,43.9,70.1,42.5,70.8,41.5 M75,52.9c-1.6,0-2.9-0.6-4-1.7c-1.1-1.1-1.6-2.5-1.6-4.2c0-0.1,0-0.3,0-0.6l9.9,0l0-0.4
		c0-2.1-0.5-3.8-1.5-5c-1-1.2-2.4-1.8-4.2-1.8c-2,0-3.7,0.7-5,2.2c-1.3,1.5-2,3.3-2,5.5c0,2.2,0.7,4.1,2.1,5.5
		c1.4,1.4,3.2,2.1,5.3,2.1c1.8,0,3.6-0.5,5.5-1.6l0-1.2C78,52.5,76.5,52.9,75,52.9"/>
	<path id="path3708" style="clip-path:url(#SVGID_00000066484530684272789950000004789788356731174332_);" d="M81.1,53.5l-0.3-3.7
		l1,0l0,0.3c0.4,2.4,1.6,3.6,3.7,3.6c0.9,0,1.7-0.3,2.3-0.8c0.6-0.6,1-1.2,1-2c0-0.5-0.2-0.9-0.5-1.3c-0.3-0.4-1.1-0.9-2.4-1.6
		l-1.2-0.7c-2.4-1.3-3.5-2.7-3.5-4.3c0-1.2,0.4-2.1,1.3-2.8c0.9-0.7,2-1,3.5-1c1.3,0,2.6,0.3,4.1,0.8l0,3l-1,0l0-0.2
		c-0.1-0.4-0.1-0.8-0.2-1.1c-0.1-0.3-0.3-0.6-0.5-0.8c-0.2-0.2-0.5-0.4-0.8-0.6c-0.4-0.2-0.9-0.3-1.6-0.3c-0.7,0-1.3,0.2-1.8,0.6
		c-0.5,0.4-0.7,1-0.7,1.6c0,1,0.9,1.9,2.7,3l1.4,0.8c1.3,0.7,2.3,1.4,2.8,2c0.5,0.6,0.8,1.4,0.8,2.3c0,1.3-0.5,2.3-1.5,3
		c-1,0.8-2.3,1.2-4,1.2C83.7,54.5,82.3,54.2,81.1,53.5"/>
	
		<path id="path3712" style="clip-path:url(#SVGID_00000066484530684272789950000004789788356731174332_);fill-rule:evenodd;clip-rule:evenodd;fill:#FFFFFF;" d="
		M94,6.9c1.2,0,2.2-0.9,2.2-2.2c0-1.3-1-2.2-2.2-2.2c-1.2,0-2.2,0.9-2.2,2.2C91.8,5.9,92.8,6.9,94,6.9 M92.2,4.6
		c0-1,0.8-1.8,1.8-1.8c1,0,1.8,0.8,1.8,1.8c0,1.1-0.8,1.9-1.8,1.9C93,6.5,92.2,5.7,92.2,4.6 M93.5,4.8H94l0.7,1.1h0.4l-0.7-1.1
		c0.4,0,0.7-0.2,0.7-0.7c0-0.5-0.3-0.7-0.9-0.7h-1v2.6h0.4C93.5,5.9,93.5,4.8,93.5,4.8z M93.5,4.5V3.7h0.5c0.3,0,0.6,0.1,0.6,0.4
		c0,0.4-0.3,0.4-0.6,0.4C94,4.5,93.5,4.5,93.5,4.5z"/>
</g>
<g id="g3758" transform="matrix(1.25,0,0,-1.25,1.6675065,1016.1122)">
	<g>
		<defs>
			<rect id="SVGID_00000034802222306774581650000009677559550267343020_" x="636.1" y="352.9" width="66.9" height="44.4"/>
		</defs>
		<clipPath id="SVGID_00000000191494242872387330000006027988450743187860_">
			<use xlink:href="#SVGID_00000034802222306774581650000009677559550267343020_"  style="overflow:visible;"/>
		</clipPath>
		<g id="g3760" style="clip-path:url(#SVGID_00000000191494242872387330000006027988450743187860_);">
			<g id="g3766" transform="matrix(70.62001,0,0,48.626343,11.326904,425.62366)">
			</g>
		</g>
	</g>
</g>
<g id="g3806" transform="matrix(1.25,0,0,-1.25,1.6675065,1016.1122)">
	<g>
		<defs>
			<rect id="SVGID_00000140696207716328228680000005308453093102240420_" x="1163" y="271.2" width="66.9" height="44.4"/>
		</defs>
		<clipPath id="SVGID_00000041985846886971332460000010438402456178131859_">
			<use xlink:href="#SVGID_00000140696207716328228680000005308453093102240420_"  style="overflow:visible;"/>
		</clipPath>
		<g id="g3808" style="clip-path:url(#SVGID_00000041985846886971332460000010438402456178131859_);">
			<g id="g3814" transform="matrix(54.491699,0,0,36.469757,538.16064,356.06598)">
			</g>
		</g>
	</g>
</g>
<g id="g3834" transform="matrix(1.25,0,0,-1.25,1.6675065,1016.1122)">
	<g>
		<defs>
			<rect id="SVGID_00000117652334983259277120000001370644724213099150_" x="636.1" y="434.5" width="66.9" height="44.3"/>
		</defs>
		<clipPath id="SVGID_00000042730230910434203510000002562901342792873104_">
			<use xlink:href="#SVGID_00000117652334983259277120000001370644724213099150_"  style="overflow:visible;"/>
		</clipPath>
		<g id="g3836" style="clip-path:url(#SVGID_00000042730230910434203510000002562901342792873104_);">
			<g id="g3842" transform="matrix(78.136093,0,0,51.119995,11.326904,504.63)">
			</g>
		</g>
	</g>
</g>
<g id="g3848" transform="matrix(1.25,0,0,-1.25,1.6675065,1016.1122)">
	<g>
		<defs>
			<rect id="SVGID_00000176041531017097624440000007232248235864823198_" x="1163" y="181.7" width="66.9" height="44.4"/>
		</defs>
		<clipPath id="SVGID_00000062185896058062375390000006767191989650509186_">
			<use xlink:href="#SVGID_00000176041531017097624440000007232248235864823198_"  style="overflow:visible;"/>
		</clipPath>
		<g id="g3850" style="clip-path:url(#SVGID_00000062185896058062375390000006767191989650509186_);">
			<g id="g3856" transform="matrix(109.13998,0,0,71.692703,538.16064,231.32516)">
			</g>
		</g>
	</g>
</g>
<g id="g4290" transform="matrix(1.25,0,0,-1.25,1.6675065,1016.1122)">
	<g>
		<defs>
			<rect id="SVGID_00000042702520527722692770000017369176827440913806_" x="814.9" y="609.9" width="325.7" height="91.9"/>
		</defs>
		<clipPath id="SVGID_00000083792904338463764130000017136633738529245088_">
			<use xlink:href="#SVGID_00000042702520527722692770000017369176827440913806_"  style="overflow:visible;"/>
		</clipPath>
		<g id="g4292" style="clip-path:url(#SVGID_00000083792904338463764130000017136633738529245088_);">
			<g id="g4298" transform="translate(155.743,842.0004)">
				<path id="path4300" class="st8" d="M631.5-81.4v-208.1"/>
			</g>
		</g>
	</g>
</g>
</svg>
