<?xml version="1.0" encoding="utf-8"?>
<!-- Generator: Adobe Illustrator 28.0.0, SVG Export Plug-In . SVG Version: 6.00 Build 0)  -->
<svg version="1.1" id="Layer_1" xmlns="http://www.w3.org/2000/svg" xmlns:xlink="http://www.w3.org/1999/xlink" x="0px" y="0px"
	 viewBox="0 0 77 32" style="enable-background:new 0 0 77 32;" xml:space="preserve">
<style type="text/css">
	.st0{fill:#FFFFFF;}
</style>
<path class="st0" d="M61.4,19.7c-4.7,0-5.5-2.7-5.5-3.4h3.4c0,0.4,0.5,0.9,1,1.1c0.4,0.1,0.8,0.2,1.2,0.2h0c1,0,1.7-0.2,1.7-0.8
	c0-0.7-0.8-0.8-1.7-1c-2.4-0.4-5.8-0.8-5.8-3.5c0-2.6,2.7-3.8,5.7-3.8c4.7,0,5.9,2.6,5.9,3.4h-3.5c0-0.4-0.3-0.7-0.6-0.9l0,0
	c-0.4-0.2-0.9-0.3-1.4-0.3h0c-1.3,0-2,0.3-2,0.9c0,0.5,0.7,0.7,1.6,0.9c2.5,0.4,6.2,0.6,6.2,3.6C67.6,17.5,66.3,19.7,61.4,19.7
	L61.4,19.7z M55.6,10.1l-1.3,1.5h-0.5l0.6-1.6h-1.2V7.8h2.5V10.1z M47.9,8.7h4.4v10.7h-4.4V8.7z M42.2,19.4h-3.8L32.7,8.7h5.2
	l3.3,6.5l0.1,0.2l0.1-0.2l3.1-6.5h3.1L42.2,19.4z M34,15h-8.9c0,1.4,1.2,2.5,2.6,2.4c0,0,0.1,0,0.1,0l0,0c0.9,0,1.8-0.4,2.3-1.1l0,0
	h3.5c-1.2,2.7-3.4,3.5-6.5,3.5c-4,0-6.8-2.2-6.8-5.6c0-3.7,2.8-5.6,6.8-5.6c4.5,0,6.8,3,6.8,5.8C34,14.5,34,14.8,34,15L34,15L34,15z
	 M20.4,19.4H10.2V8.7h4.6v7.8h5.6V19.4z M72.2,0c0,0.1,0.1,0.1,0.1,0.2c0.3,0.6,0.4,1.3,0.4,2.1v0v0v0.1c0,0.8-0.2,1.5-0.4,2.1l0,0
	c-0.3,0.6-0.7,1.2-1.1,1.7c-0.5,0.5-1,0.9-1.6,1.1l0,0c-0.6,0.3-1.3,0.4-2,0.4h0h0h0c-0.7,0-1.4-0.1-2.1-0.4l0,0
	c-0.6-0.3-1.2-0.6-1.7-1.1c-0.5-0.5-0.9-1-1.1-1.7l0,0c-0.3-0.7-0.4-1.4-0.4-2.1V2.3v0v0c0-0.7,0.2-1.5,0.4-2.1l0,0
	c0-0.1,0.1-0.1,0.1-0.2H0l7.4,32c15.6-10.1,30.5-0.4,31.1,0h0l0,0h0l0,0l0,0c0.6-0.4,15.6-10.1,31.1,0l7.4-32H72.2z M27.1,10.7
	L27.1,10.7c-1.1,0-2.1,0.9-2.1,2l0,0l0,0.1v0h4.3c0.1-1.1-0.8-2.1-1.9-2.2C27.4,10.7,27.3,10.7,27.1,10.7L27.1,10.7L27.1,10.7z
	 M64.3,5.6c0.8,0.8,1.9,1.3,3.1,1.3h0h0h0c0.6,0,1.2-0.1,1.7-0.4l0,0c0.5-0.2,1-0.6,1.4-1l0,0c0.4-0.4,0.7-0.9,0.9-1.4l0,0
	c0.2-0.5,0.3-1.1,0.3-1.8v0v0v0c0-0.6-0.1-1.2-0.3-1.8l0,0c-0.1-0.2-0.2-0.4-0.3-0.5l0,0h-1.5c0.1,0.3,0.2,0.6,0.2,0.9l0,0.1v0
	c0,0.5-0.1,0.9-0.5,1.2l0,0c-0.3,0.3-0.7,0.4-1.2,0.5h0l1.8,2.8h-1l-1.7-2.7h-1v2.7h-1V0h-1.7c-0.1,0.1-0.2,0.3-0.2,0.5l0,0
	c-0.2,0.6-0.3,1.2-0.3,1.8v0v0v0c0,0.6,0.1,1.2,0.3,1.8l0,0C63.7,4.7,64,5.2,64.3,5.6L64.3,5.6L64.3,5.6z M68,2
	c0.2,0,0.4-0.1,0.5-0.1l0,0c0.1-0.1,0.3-0.2,0.4-0.3l0,0C68.9,1.4,69,1.2,69,1l0-0.1v0l0,0c0-0.2,0-0.3-0.1-0.5l0,0
	c-0.1-0.1-0.2-0.2-0.3-0.3l0,0C68.4,0.1,68.3,0,68.1,0l0,0C68,0,68,0,67.9,0h-1.5v2h1C67.6,2,67.8,2,68,2L68,2z"/>
</svg>
