<?xml version="1.0" encoding="utf-8"?>
<!-- Generator: Adobe Illustrator 28.0.0, SVG Export Plug-In . SVG Version: 6.00 Build 0)  -->
<svg version="1.1"
	 id="Layer_1" xmlns:inkscape="http://www.inkscape.org/namespaces/inkscape" xmlns:sodipodi="http://sodipodi.sourceforge.net/DTD/sodipodi-0.dtd" xmlns:svg="http://www.w3.org/2000/svg" xmlns:rdf="http://www.w3.org/1999/02/22-rdf-syntax-ns#" xmlns:cc="http://creativecommons.org/ns#" xmlns:dc="http://purl.org/dc/elements/1.1/" inkscape:version="1.1.1 (3bf5ae0d25, 2021-09-20)" sodipodi:docname="Moschino-Logo.svg"
	 xmlns="http://www.w3.org/2000/svg" xmlns:xlink="http://www.w3.org/1999/xlink" x="0px" y="0px" viewBox="0 0 192.3 65.6"
	 style="enable-background:new 0 0 192.3 65.6;" xml:space="preserve">
<style type="text/css">
	.st0{fill:#FFFFFF;}
</style>
<sodipodi:namedview  bordercolor="#999999" borderopacity="1" fit-margin-bottom="10" fit-margin-left="10" fit-margin-right="10" fit-margin-top="10" id="namedview21" inkscape:current-layer="Layer_1" inkscape:cx="38.899247" inkscape:cy="35.394811" inkscape:pagecheckerboard="0" inkscape:pageopacity="0" inkscape:pageshadow="0" inkscape:window-height="1001" inkscape:window-maximized="1" inkscape:window-width="1920" inkscape:window-x="-9" inkscape:window-y="-9" inkscape:zoom="7.1338141" pagecolor="#ffffff" showgrid="false">
	</sodipodi:namedview>
<polygon id="polygon4" class="st0" points="129.3,55 129.3,10.5 135.5,10.5 135.5,55 "/>
<path id="path6" class="st0" d="M74.1,19.4v4.2h6v-5.2c-0.6-6.7-5.3-8.3-8.7-8.3s-8.9,1.8-8.9,9.3s0,9,6.9,13.7
	c4.3,3,5.4,4.8,5.5,7.4c0,0,0.1,3.8,0,5.6c-0.3,6-6.3,4.5-6.3,0.5c0-2.2,0-6.5,0-6.5h-6.1v6.5c0,5.7,3.8,9,9.2,9.1
	c3.1,0,9.2-1.2,9.4-9v-7.8c-0.3-5.7-3.8-7.9-6.5-9.9s-6-3.4-6.2-6.5v-3C68.3,13.8,74.1,13.9,74.1,19.4L74.1,19.4L74.1,19.4z"/>
<polygon id="polygon8" class="st0" points="16.9,10.6 23.1,35.2 29.2,10.6 36.1,10.6 36.1,55 29.9,55 29.9,27.6 25.2,55 20.9,55 
	16.3,27.6 16.3,55 10,55 10,10.6 "/>
<polygon id="polygon10" class="st0" points="112.8,35.3 119.1,35.3 119.1,55 125.3,55 125.3,10.5 119.1,10.5 119.1,29.7 112.8,29.7 
	112.8,10.5 106.5,10.5 106.5,55 112.8,55 "/>
<polygon id="polygon12" class="st0" points="153.1,33.6 153.1,10.6 159.4,10.6 159.4,55 154.1,55 145.9,28.2 145.9,55 139.7,55 
	139.7,10.5 146.1,10.5 "/>
<path id="path14" class="st0" d="M163.1,21.6c0-4.2,2-11.6,9.6-11.6s9.6,7.1,9.6,11.6V44c0,4.4-2,11.6-9.6,11.6s-9.6-7.2-9.6-11.6
	V21.6z M169.4,44c0,4.2,1.8,5.5,3.4,5.5c1.5,0,3.3-1.4,3.3-5.5V21.6c0-4.2-1.8-5.5-3.4-5.5c-1.5,0-3.4,1.4-3.4,5.5L169.4,44
	L169.4,44L169.4,44z"/>
<path id="path16" class="st0" d="M39.8,21.6c0-4.2,2-11.6,9.6-11.6s9.6,7.1,9.6,11.6V44c0,4.4-2,11.6-9.6,11.6s-9.6-7.2-9.6-11.6
	L39.8,21.6z M46,44c0,4.2,1.8,5.6,3.3,5.6s3.3-1.4,3.3-5.5V21.6c0-4.2-1.8-5.5-3.3-5.5c-1.5,0-3.3,1.4-3.3,5.5V44z"/>
<path id="path18" class="st0" d="M103.1,39.9v4c0,5.4-1.7,11.6-9.2,11.6s-9.6-7.2-9.6-11.6V21.6c0-4.2,2-11.6,9.6-11.6
	s8.9,6.2,8.9,11.6v3.6H97v-3.6c0-3.8-1.2-5.5-3.2-5.5c-1.5,0-3.3,1.2-3.3,5.5V44c0,3.4,1.3,5.5,3.3,5.5c1.8,0,3.2-1.3,3.2-5.5v-4
	L103.1,39.9L103.1,39.9z"/>
</svg>
