<svg width="117" height="25" viewBox="0 0 117 25" fill="none" xmlns="http://www.w3.org/2000/svg">
<path d="M60.1724 21.7359L52.3076 10.7032V21.7359H48.5737V2.6779H50.9222L58.7616 13.6514V2.6779H62.5208V21.7359H60.1724Z" fill="white"/>
<path d="M72.3121 7.67894C76.6627 7.67894 79.6616 10.6779 79.6616 14.8933C79.6616 19.1086 76.6627 22.1414 72.3121 22.1414C67.9616 22.1414 64.9626 19.1424 64.9626 14.8933C64.9626 10.6441 67.9616 7.67894 72.3121 7.67894ZM72.3121 19.0833C74.6099 19.0833 76.2572 17.3262 76.2572 14.8679C76.2572 12.4096 74.6099 10.7286 72.3121 10.7286C70.0144 10.7286 68.3671 12.4857 68.3671 14.8679C68.3671 17.2502 70.0144 19.0833 72.3121 19.0833Z" fill="white"/>
<path d="M83.8853 2.33154C85.1271 2.33154 85.9972 3.19321 85.9972 4.44346C85.9972 5.69372 85.1355 6.58072 83.8853 6.58072C82.635 6.58072 81.7227 5.71906 81.7227 4.44346C81.7227 3.16786 82.6435 2.33154 83.8853 2.33154ZM85.7269 8.09286V21.7443H82.0268V8.08441H85.7269V8.09286Z" fill="white"/>
<path d="M96.4474 22.1413C94.6396 22.1413 93.0176 21.4909 92.1221 20.4687H92.0123L91.9278 21.7359H88.5234V2.6779H92.2235V9.08124H92.3333C93.2795 8.21958 94.7663 7.67893 96.4389 7.67893C100.333 7.67893 103.197 10.6525 103.197 14.8679C103.197 19.0833 100.333 22.1413 96.4389 22.1413H96.4474ZM95.856 10.737C93.5583 10.737 91.911 12.4941 91.911 14.8763C91.911 17.2586 93.5583 19.0917 95.856 19.0917C98.1538 19.0917 99.8011 17.3346 99.8011 14.8763C99.8011 12.4181 98.1538 10.737 95.856 10.737Z" fill="white"/>
<path d="M108.704 8.08444V16.549C108.704 18.171 109.49 19.0664 110.867 19.0664C112.354 19.0664 113.325 17.9851 113.325 16.2787V8.08444H117V21.7359H113.376V20.4941H113.266C112.616 21.4656 111.239 22.1414 109.591 22.1414C106.804 22.1414 104.996 20.2998 104.996 17.6303V8.09289H108.696L108.704 8.08444Z" fill="white"/>
<path d="M13.5078 0H40.515L27.0072 24.4729L13.5078 0Z" fill="url(#paint0_linear_2073_36195)"/>
<path d="M27.0072 24.4729H0L13.5078 0L27.0072 24.4729Z" fill="url(#paint1_linear_2073_36195)"/>
<path d="M13.5078 0H40.515L27.0072 24.4729L13.5078 0Z" fill="url(#paint2_linear_2073_36195)"/>
<defs>
<linearGradient id="paint0_linear_2073_36195" x1="27.0072" y1="0" x2="27.0072" y2="24.4729" gradientUnits="userSpaceOnUse">
<stop stop-color="#282828"/>
<stop offset="0.56" stop-color="#393939"/>
<stop offset="1" stop-color="#4A4A4A"/>
</linearGradient>
<linearGradient id="paint1_linear_2073_36195" x1="13.5078" y1="24.4729" x2="13.5078" y2="0" gradientUnits="userSpaceOnUse">
<stop stop-color="#171717"/>
<stop offset="0.31" stop-color="#272728"/>
<stop offset="0.92" stop-color="#515254"/>
<stop offset="1" stop-color="#58595B"/>
</linearGradient>
<linearGradient id="paint2_linear_2073_36195" x1="27.0072" y1="0" x2="27.0072" y2="24.4729" gradientUnits="userSpaceOnUse">
<stop stop-color="#171717"/>
<stop offset="0.24" stop-color="#272728"/>
<stop offset="0.72" stop-color="#515254"/>
<stop offset="1" stop-color="#6D6E71"/>
</linearGradient>
</defs>
</svg>
