<svg width="110" height="23" viewBox="0 0 110 23" fill="none" xmlns="http://www.w3.org/2000/svg">
<g clip-path="url(#clip0_1723_3757)">
<path d="M57.0502 20.4307L49.7232 10.1523V20.4307H46.2446V2.67578H48.4325L55.7359 12.899V2.67578H59.2381V20.4307H57.0502Z" fill="#0D121C"/>
<path d="M68.3675 7.33472C72.4206 7.33472 75.2144 10.1286 75.2144 14.0558C75.2144 17.9829 72.4206 20.8083 68.3675 20.8083C64.3144 20.8083 61.5205 18.0144 61.5205 14.0558C61.5205 10.0971 64.3144 7.33472 68.3675 7.33472ZM68.3675 17.9593C70.5081 17.9593 72.0428 16.3223 72.0428 14.0321C72.0428 11.742 70.5081 10.1758 68.3675 10.1758C66.2268 10.1758 64.6921 11.8128 64.6921 14.0321C64.6921 16.2515 66.2268 17.9593 68.3675 17.9593Z" fill="#0D121C"/>
<path d="M79.1417 2.35303C80.2986 2.35303 81.1092 3.15577 81.1092 4.32054C81.1092 5.48532 80.3065 6.31167 79.1417 6.31167C77.9769 6.31167 77.127 5.50893 77.127 4.32054C77.127 3.13216 77.9848 2.35303 79.1417 2.35303ZM80.8574 7.72042V20.4384H77.4103V7.71255H80.8574V7.72042Z" fill="#0D121C"/>
<path d="M90.8523 20.8084C89.1682 20.8084 87.6571 20.2024 86.8229 19.2502H86.7206L86.6419 20.4307H83.4702V2.67578H86.9173V8.64129H87.0196C87.9011 7.83855 89.2862 7.33486 90.8445 7.33486C94.4726 7.33486 97.1405 10.1051 97.1405 14.0323C97.1405 17.9595 94.4726 20.8084 90.8445 20.8084H90.8523ZM90.3014 10.1838C88.1608 10.1838 86.6261 11.8208 86.6261 14.0402C86.6261 16.2595 88.1608 17.9673 90.3014 17.9673C92.4421 17.9673 93.9768 16.3304 93.9768 14.0402C93.9768 11.75 92.4421 10.1838 90.3014 10.1838Z" fill="#0D121C"/>
<path d="M102.272 7.71265V15.5985C102.272 17.1095 103.004 17.9437 104.287 17.9437C105.672 17.9437 106.577 16.9364 106.577 15.3466V7.71265H110V20.4307H106.624V19.2738H106.522C105.916 20.1788 104.633 20.8084 103.098 20.8084C100.501 20.8084 98.8169 19.0928 98.8169 16.6058V7.72052H102.264L102.272 7.71265Z" fill="#0D121C"/>
<path d="M25.1606 22.7996H0L12.5842 0L25.1606 22.7996Z" fill="url(#paint0_linear_1723_3757)"/>
<path d="M12.5845 0H37.7451L25.1608 22.7996L12.5845 0Z" fill="url(#paint1_linear_1723_3757)"/>
</g>
<defs>
<linearGradient id="paint0_linear_1723_3757" x1="12.5842" y1="22.7996" x2="12.5842" y2="0" gradientUnits="userSpaceOnUse">
<stop stop-color="#2600FF"/>
<stop offset="0.12" stop-color="#3707F4"/>
<stop offset="0.36" stop-color="#6419D8"/>
<stop offset="0.68" stop-color="#AB37AB"/>
<stop offset="1" stop-color="#F7567C"/>
</linearGradient>
<linearGradient id="paint1_linear_1723_3757" x1="25.1608" y1="0" x2="25.1608" y2="22.7996" gradientUnits="userSpaceOnUse">
<stop stop-color="#2600FF"/>
<stop offset="0.12" stop-color="#3707F4"/>
<stop offset="0.36" stop-color="#6419D8"/>
<stop offset="0.68" stop-color="#AB37AB"/>
<stop offset="1" stop-color="#F7567C"/>
</linearGradient>
<clipPath id="clip0_1723_3757">
<rect width="110" height="22.7996" fill="white"/>
</clipPath>
</defs>
</svg>
